<svg width="1280" height="720" xmlns="http://www.w3.org/2000/svg" xmlns:xlink="http://www.w3.org/1999/xlink" overflow="hidden"><g><rect x="0" y="0" width="1280" height="720" fill="#FFFFFF"/><rect x="0" y="685" width="1280" height="35" fill="#A6A6A6"/><text fill="#FFFFFF" font-family="Calibri,Calibri_MSFontService,sans-serif" font-weight="400" font-size="24" transform="translate(9.6 707)">Image and Laboratory Spectroscopy:</text><text fill="#800000" font-family="Calibri,Calibri_MSFontService,sans-serif" font-weight="400" font-size="24" transform="translate(370.367 707)">Radiometric correction</text><rect x="790.5" y="315.5" width="189" height="83" stroke="#000000" stroke-miterlimit="8" fill="none"/><rect x="564.5" y="209.5" width="189" height="83" stroke="#000000" stroke-miterlimit="8" fill="none"/><rect x="813.5" y="550.5" width="151" height="60" stroke="#000000" stroke-miterlimit="8" fill="#FFFF00"/><rect x="125.5" y="232.5" width="144" height="60" stroke="#000000" stroke-miterlimit="8" fill="#FFFFCC"/><rect x="579.5" y="444.5" width="151" height="60" stroke="#000000" stroke-miterlimit="8" fill="#FFFF66"/><path d="M571.5 333.167C571.5 323.41 579.41 315.5 589.167 315.5L720.833 315.5C730.59 315.5 738.5 323.41 738.5 333.167L738.5 403.833C738.5 413.59 730.59 421.5 720.833 421.5L589.167 421.5C579.41 421.5 571.5 413.59 571.5 403.833Z" stroke="#000000" stroke-miterlimit="8" fill="#DAE3F3" fill-rule="evenodd"/><path d="M344.5 227.167C344.5 217.41 352.41 209.5 362.167 209.5L485.833 209.5C495.59 209.5 503.5 217.41 503.5 227.167L503.5 297.833C503.5 307.59 495.59 315.5 485.833 315.5L362.167 315.5C352.41 315.5 344.5 307.59 344.5 297.833Z" stroke="#000000" stroke-miterlimit="8" fill="#DAE3F3" fill-rule="evenodd"/><rect x="344.5" y="337.5" width="151" height="61" stroke="#000000" stroke-miterlimit="8" fill="#FFFF99"/><path d="M805.5 438.167C805.5 428.41 813.41 420.5 823.167 420.5L961.833 420.5C971.59 420.5 979.5 428.41 979.5 438.167L979.5 508.833C979.5 518.59 971.59 526.5 961.833 526.5L823.167 526.5C813.41 526.5 805.5 518.59 805.5 508.833Z" stroke="#000000" stroke-miterlimit="8" fill="#DAE3F3" fill-rule="evenodd"/><text font-family="Arial,Arial_MSFontService,sans-serif" font-weight="400" font-size="21" transform="translate(599.349 243)">Atm. models,</text><text font-family="Arial,Arial_MSFontService,sans-serif" font-weight="400" font-size="21" transform="translate(579.769 268)">ground meas., …</text><text font-family="Arial,Arial_MSFontService,sans-serif" font-weight="400" font-size="21" transform="translate(390.015 256)">Sensor</text><text font-family="Arial,Arial_MSFontService,sans-serif" font-weight="400" font-size="21" transform="translate(375.269 281)">calibration</text><text font-family="Arial,Arial_MSFontService,sans-serif" font-weight="400" font-size="21" transform="translate(370.435 363)">At</text><text font-family="Arial,Arial_MSFontService,sans-serif" font-weight="400" font-size="21" transform="translate(390.602 363)">-</text><text font-family="Arial,Arial_MSFontService,sans-serif" font-weight="400" font-size="21" transform="translate(397.769 363)">sensor</text><text font-family="Arial,Arial_MSFontService,sans-serif" font-weight="400" font-size="21" transform="translate(375.269 388)">radiance</text><text font-family="Arial,Arial_MSFontService,sans-serif" font-weight="400" font-size="21" transform="translate(591.519 363)">Atmospheric</text><text font-family="Arial,Arial_MSFontService,sans-serif" font-weight="400" font-size="21" transform="translate(603.939 388)">correction</text><text font-family="Arial,Arial_MSFontService,sans-serif" font-weight="400" font-size="21" transform="translate(614.015 470)">Surface</text><text font-family="Arial,Arial_MSFontService,sans-serif" font-weight="400" font-size="21" transform="translate(609.935 495)">radiance</text><text font-family="Arial,Arial_MSFontService,sans-serif" font-weight="400" font-size="21" transform="translate(843.015 454)">Solar and</text><text font-family="Arial,Arial_MSFontService,sans-serif" font-weight="400" font-size="21" transform="translate(832.935 479)">topographic</text><text font-family="Arial,Arial_MSFontService,sans-serif" font-weight="400" font-size="21" transform="translate(841.769 505)">correction</text><text font-family="Arial,Arial_MSFontService,sans-serif" font-weight="700" font-size="21" transform="translate(845.849 575)">Surface</text><text font-family="Arial,Arial_MSFontService,sans-serif" font-weight="700" font-size="21" transform="translate(828.602 600)">reflectance</text><rect x="329.5" y="118.5" width="189" height="68" stroke="#000000" stroke-miterlimit="8" fill="none"/><text font-family="Arial,Arial_MSFontService,sans-serif" font-weight="400" font-size="21" transform="translate(352.769 147)">Calibration gain</text><text font-family="Arial,Arial_MSFontService,sans-serif" font-weight="400" font-size="21" transform="translate(350.795 172)">and offset coef.</text><text font-family="Arial,Arial_MSFontService,sans-serif" font-weight="400" font-size="21" transform="translate(835.602 349)">Solar angle,</text><text font-family="Arial,Arial_MSFontService,sans-serif" font-weight="400" font-size="21" transform="translate(852.102 374)">DEM, …</text><text font-family="Arial,Arial_MSFontService,sans-serif" font-weight="700" font-size="21" transform="translate(141.852 273)">Image DNs</text><path d="M421 186.5 421 202.833 420 202.833 420 186.5ZM424.5 201.5 420.5 209.5 416.5 201.5Z"/><path d="M656 292.5 656 308.833 655 308.833 655 292.5ZM659.5 307.5 655.5 315.5 651.5 307.5Z"/><path d="M890 398.5 890 414.833 889 414.833 889 398.5ZM893.5 413.5 889.5 421.5 885.5 413.5Z"/><path d="M421 315.5 421 330.833 420 330.833 420 315.5ZM424.5 329.5 420.5 337.5 416.5 329.5Z"/><path d="M656 421.5 656 437.833 655 437.833 655 421.5ZM659.5 436.5 655.5 444.5 651.5 436.5Z"/><path d="M890 527.5 890 543.833 889 543.833 889 527.5ZM893.5 542.5 889.5 550.5 885.5 542.5Z"/><path d="M6.66666-0.499991 75-0.499895 75 0.500105 6.66666 0.500009ZM7.99999 4.00001 0 0 8.00001-3.99999Z" transform="matrix(-1 0 0 1 805.5 474.5)"/><path d="M6.66666-0.499991 76-0.499895 76 0.500105 6.66666 0.500009ZM7.99999 4.00001 0 0 8.00001-3.99999Z" transform="matrix(-1 0 0 1 571.5 368.5)"/><path d="M6.66666-0.499991 75-0.499895 75 0.500105 6.66666 0.500009ZM7.99999 4.00001 0 0 8.00001-3.99999Z" transform="matrix(-1 0 0 1 344.5 262.5)"/></g></svg>